<svg xmlns="http://www.w3.org/2000/svg" width="26" height="36.75" viewBox="0 0 26 36.75"><g transform="translate(0 0.25)"><text transform="translate(13 33.5)" fill="#1c3c34" font-size="9" font-family="Helvetica"><tspan x="-12.004" y="0">Home</tspan></text><path d="M-82.836-33.388a2.34,2.34,0,0,1-.609,1.022,2.037,2.037,0,0,1-1.39.559c-.109,0-.219,0-.367,0v.26c0,2.149,0,4.3,0,6.447a2.4,2.4,0,0,1-1.872,2.39,2.728,2.728,0,0,1-.608.065c-1.14.006-2.281,0-3.421,0a.678.678,0,0,1-.76-.755c0-1.681-.019-3.363.008-5.043A1.173,1.173,0,0,0-93.128-29.7c-.613.023-1.228,0-1.842.005a1.109,1.109,0,0,0-1.21,1.215q0,2.511,0,5.021c0,.571-.242.813-.813.813q-1.667,0-3.334,0a2.415,2.415,0,0,1-2.516-2.509q0-3.18,0-6.359v-.272a6.892,6.892,0,0,1-.723-.065,1.961,1.961,0,0,1-1.572-1.366,1.99,1.99,0,0,1,.41-2.026c.066-.078.14-.149.212-.221q4.288-4.287,8.574-8.576a3.51,3.51,0,0,1,1.394-1.017H-93.5a3.45,3.45,0,0,1,1.349.971q4.216,4.227,8.444,8.442a3.016,3.016,0,0,1,.867,1.29Zm-7.714,9.43h2.778a1.12,1.12,0,0,0,1.254-1.258q0-3.574,0-7.148a.68.68,0,0,1,.76-.756c.307,0,.614,0,.921,0a.729.729,0,0,0,.693-.539.835.835,0,0,0-.315-.873q-4.454-4.447-8.9-8.9a.8.8,0,0,0-1.33.008l-7.925,7.923c-.367.367-.738.73-1.1,1.1a.708.708,0,0,0-.157.829.714.714,0,0,0,.692.45c.27,0,.541,0,.811,0,.6,0,.84.235.84.832q0,3.574,0,7.149a1.1,1.1,0,0,0,1.174,1.183q1.316,0,2.632,0c.07,0,.14-.007.225-.012,0-.106,0-.192,0-.279,0-1.484-.012-2.968.01-4.451a2.33,2.33,0,0,1,2.122-2.271c.894-.06,1.8-.012,2.694-.01a.927.927,0,0,1,.195.028,2.4,2.4,0,0,1,1.924,2.393c.009,1.44,0,2.88,0,4.32Z" transform="translate(107.046 45.055)" fill="#1c3c34" stroke="#0b1d46" stroke-width="0.5"/></g></svg>