<svg xmlns="http://www.w3.org/2000/svg" width="27.707" height="27.726" viewBox="0 0 27.707 27.726"><defs><style>.a{fill:#1c3c34;fill-rule:evenodd;}</style></defs><path class="a" d="M1032.309,6048.816a4.68,4.68,0,0,1-2.633,2.636c-1.824.724-6.151.557-8.166.557s-6.348.16-8.164-.557a4.675,4.675,0,0,1-2.633-2.636c-.724-1.824-.557-6.156-.557-8.173s-.162-6.354.557-8.171a4.675,4.675,0,0,1,2.633-2.637c1.823-.723,6.151-.557,8.164-.557s6.348-.16,8.166.557a4.682,4.682,0,0,1,2.633,2.637c.723,1.824.556,6.155.556,8.171S1033.032,6047,1032.309,6048.816Zm2.954-13.889a7.676,7.676,0,0,0-8.041-8.05c-2.287-.129-9.143-.129-11.429,0a7.668,7.668,0,0,0-8.043,8.043c-.129,2.29-.129,9.151,0,11.439a7.676,7.676,0,0,0,8.043,8.049c2.286.13,9.141.13,11.429,0a7.676,7.676,0,0,0,8.041-8.049C1035.394,6044.072,1035.394,6037.216,1035.263,6034.927Zm-4.7-1.683a1.657,1.657,0,1,1-1.658-1.658A1.653,1.653,0,0,1,1030.56,6033.244Zm-9.05,12.021a4.621,4.621,0,1,1,4.619-4.622A4.627,4.627,0,0,1,1021.51,6045.265Zm0-11.729a7.108,7.108,0,1,0,7.1,7.108A7.093,7.093,0,0,0,1021.51,6033.535Z" transform="translate(-1007.654 -6026.781)"/></svg>