<svg xmlns="http://www.w3.org/2000/svg" width="38" height="36.75" viewBox="0 0 38 36.75"><g transform="translate(0 0.25)"><text transform="translate(19 33.5)" fill="#1c3c34" font-size="9" font-family="Helvetica"><tspan x="-18.259" y="0">Message</tspan></text><path d="M-166.489-62.2v-.356c0-1.421,0-2.842,0-4.263,0-.212-.046-.29-.275-.3a3.3,3.3,0,0,1-3.047-3.144c-.028-2.622-.011-5.244-.013-7.866,0-.99.028-1.98-.006-2.969a3.406,3.406,0,0,1,3.513-3.514c3.525.028,7.051.008,10.576.008q3.386,0,6.772,0a3.333,3.333,0,0,1,3.041,1.68,3.294,3.294,0,0,1,.455,1.745c0,3.552.008,7.1,0,10.657a3.344,3.344,0,0,1-3.491,3.425q-5.085.008-10.171,0a.919.919,0,0,0-.561.176q-3.251,2.274-6.511,4.536C-166.279-62.334-166.357-62.285-166.489-62.2Zm1.431-2.741c.116-.074.193-.12.267-.172q2.331-1.622,4.659-3.247a.877.877,0,0,1,.536-.172q5.314.008,10.628,0a1.929,1.929,0,0,0,2.07-2.055q.008-5.265-.007-10.531a2.365,2.365,0,0,0-.208-.977,1.909,1.909,0,0,0-1.9-1.085q-8.624.009-17.248,0c-.093,0-.186,0-.279.007a1.881,1.881,0,0,0-1.847,1.907c-.012,3.6-.006,7.206,0,10.81A1.847,1.847,0,0,0-168-69.291a1.927,1.927,0,0,0,1.632.766c.428,0,.856,0,1.314,0Z" transform="translate(176.828 84.61)" fill="#1c3c34" stroke="#0b1d46" stroke-width="0.5"/></g></svg>