<svg xmlns="http://www.w3.org/2000/svg" width="34" height="36" viewBox="0 0 34 36"><g transform="translate(112.057 43.957)"><path d="M-84.118-34.582a.858.858,0,0,1-.894.678,1.166,1.166,0,0,1-.53-.2,6.431,6.431,0,0,0-2.568-1.01,6.353,6.353,0,0,0-4.65,1.024,8.464,8.464,0,0,0-.767.616.4.4,0,0,0-.133.229,4.334,4.334,0,0,1-1.309,2.653.987.987,0,0,0-.066.078c.393.2.78.4,1.16.6a4.87,4.87,0,0,1,.488.309.853.853,0,0,1,.26,1.185.84.84,0,0,1-1.185.249,6.538,6.538,0,0,0-2.112-.96,6.578,6.578,0,0,0-6.342,1.778,6.458,6.458,0,0,0-1.478,2.307.915.915,0,0,0,.906,1.314c2.407-.024,4.814-.01,7.22-.009a.863.863,0,0,1,.92.67.806.806,0,0,1-.786,1c-2.528,0-5.056,0-7.585,0a2.371,2.371,0,0,1-2.192-1.349,2.683,2.683,0,0,1,0-2.454,8.223,8.223,0,0,1,4.5-4.522l.291-.125a4.336,4.336,0,0,1-1.31-4.088,4.215,4.215,0,0,1,1.864-2.768,4.381,4.381,0,0,1,6.466,1.961l1.825-.992A4.326,4.326,0,0,1-93.4-40.495a4.258,4.258,0,0,1,1.74-2.66,4.4,4.4,0,0,1,5.661.5,4.408,4.408,0,0,1-.173,6.284c.079.038.153.069.223.107.469.256.952.489,1.4.78a2.207,2.207,0,0,1,.436.554ZM-98-36.385a2.66,2.66,0,0,0-2.655,2.655A2.67,2.67,0,0,0-98-31.073a2.667,2.667,0,0,0,2.653-2.66A2.657,2.657,0,0,0-98-36.385ZM-86.475-39.6a2.663,2.663,0,0,0-2.658-2.653,2.663,2.663,0,0,0-2.653,2.659,2.663,2.663,0,0,0,2.659,2.654A2.663,2.663,0,0,0-86.475-39.6Z" transform="translate(0 0)" fill="#1c3c34"/><path d="M222.843,280.92a.973.973,0,0,1-1.072.689c-.705-.02-1.411-.005-2.142-.005v.244c0,.686,0,1.371,0,2.057a.879.879,0,0,1-.3.7.868.868,0,0,1-.908.118.771.771,0,0,1-.5-.777c-.007-.693,0-1.386,0-2.078V281.6h-.235c-.7,0-1.4,0-2.1,0a.83.83,0,0,1-.772-.453.8.8,0,0,1,.028-.855.839.839,0,0,1,.757-.4h2.321v-.238c0-.679,0-1.357,0-2.036a.86.86,0,1,1,1.713,0c0,.749,0,1.5,0,2.278h.238c.636,0,1.272.016,1.907-.005a.965.965,0,0,1,1.069.692Z" transform="translate(-306.961 -306.845)" fill="#1c3c34"/></g><text transform="translate(17 33)" fill="#1c3c34" font-size="9" font-family="Helvetica"><tspan x="-16.504" y="0">Network</tspan></text></svg>