<svg xmlns="http://www.w3.org/2000/svg" width="48" height="36" viewBox="0 0 48 36"><text transform="translate(24 33)" fill="#1c3c34" font-size="9" font-family="Helvetica"><tspan x="-23.506" y="0">Programme</tspan></text><g transform="translate(69 -5.945)"><path d="M-34.049,20.322a2.164,2.164,0,0,1-.261.432.792.792,0,0,1-.888.2.825.825,0,0,1-.559-.72,2.23,2.23,0,0,1-.007-.278q0-4.385,0-8.77a1.682,1.682,0,0,0-.967-1.63,1.8,1.8,0,0,0-.655-.172c-.39-.027-.784-.008-1.208-.008,0,.293.01.583,0,.871a.852.852,0,0,1-1.306.7.833.833,0,0,1-.4-.735c0-.27,0-.541,0-.827h-3.9c0,.252,0,.506,0,.76a.864.864,0,0,1-.847.934.864.864,0,0,1-.867-.936c0-.249,0-.5,0-.76h-3.859c0,.258,0,.512,0,.767a.863.863,0,0,1-.852.929.861.861,0,0,1-.862-.92c0-.255,0-.51,0-.814a10.309,10.309,0,0,0-1.481.091,1.659,1.659,0,0,0-1.3,1.665c-.006.257,0,.513,0,.77q0,6.214,0,12.428a1.681,1.681,0,0,0,.964,1.652,1.919,1.919,0,0,0,.8.183q7.491.016,14.981.006a1.7,1.7,0,0,0,1.769-1.663.962.962,0,0,1,.264-.657.855.855,0,0,1,1.37.246c.03.064.057.129.085.193v.556c-.062.239-.106.485-.187.717a3.427,3.427,0,0,1-3.331,2.32q-6.911,0-13.822,0c-.429,0-.858.017-1.286-.006a3.332,3.332,0,0,1-2.968-1.924A7.172,7.172,0,0,1-56,24.815V10.695a.692.692,0,0,0,.041-.117,3.378,3.378,0,0,1,1.6-2.412,3.575,3.575,0,0,1,2.086-.511c.254.008.508,0,.774,0,0-.234.012-.441,0-.645a.946.946,0,0,1,.688-1.066h.343a.946.946,0,0,1,.688,1.066c-.014.21,0,.421,0,.631h3.859c0-.22.012-.426,0-.631a.946.946,0,0,1,.688-1.066h.343a.946.946,0,0,1,.688,1.066c-.014.21,0,.421,0,.631h3.9c0-.22.012-.426,0-.631a.946.946,0,0,1,.688-1.066h.343a.946.946,0,0,1,.688,1.066c-.014.21,0,.421,0,.648.427,0,.826-.019,1.224,0a3.332,3.332,0,0,1,2.964,1.925,7.178,7.178,0,0,1,.357,1.107Z" transform="translate(0 0)" fill="#1c3c34"/><path d="M169.645,232.274c-.364,0-.73.022-1.092,0a1.651,1.651,0,0,1-1.6-1.571,18.67,18.67,0,0,1,0-2.265,1.619,1.619,0,0,1,1.555-1.566,18.274,18.274,0,0,1,2.291,0,1.618,1.618,0,0,1,1.561,1.561,18.319,18.319,0,0,1,0,2.265,1.676,1.676,0,0,1-1.725,1.586c-.328.006-.657,0-.986,0Zm1.006-3.705h-1.993v1.985h1.993Z" transform="translate(-210.969 -209.049)" fill="#1c3c34"/><path d="M29.738,158.54a.856.856,0,1,1-.853-.863A.86.86,0,0,1,29.738,158.54Z" transform="translate(-79.523 -143.601)" fill="#1c3c34"/><path d="M99.338,158.538a.856.856,0,1,1-.854-.861A.86.86,0,0,1,99.338,158.538Z" transform="translate(-145.393 -143.601)" fill="#1c3c34"/><path d="M168.088,159.385a.854.854,0,1,1,.853-.863A.859.859,0,0,1,168.088,159.385Z" transform="translate(-211.266 -143.6)" fill="#1c3c34"/><path d="M238.541,158.524a.856.856,0,1,1-.867-.848A.859.859,0,0,1,238.541,158.524Z" transform="translate(-277.136 -143.599)" fill="#1c3c34"/><path d="M29.741,227.988a.856.856,0,1,1-.868-.848A.859.859,0,0,1,29.741,227.988Z" transform="translate(-79.526 -209.342)" fill="#1c3c34"/><path d="M99.339,228a.856.856,0,1,1-.858-.858A.859.859,0,0,1,99.339,228Z" transform="translate(-145.394 -209.343)" fill="#1c3c34"/><path d="M29.741,297.448a.856.856,0,1,1-.871-.844A.86.86,0,0,1,29.741,297.448Z" transform="translate(-79.526 -275.082)" fill="#1c3c34"/><path d="M99.339,297.464a.856.856,0,1,1-.858-.858A.859.859,0,0,1,99.339,297.464Z" transform="translate(-145.394 -275.084)" fill="#1c3c34"/></g></svg>