<svg xmlns="http://www.w3.org/2000/svg" xmlns:xlink="http://www.w3.org/1999/xlink" width="30.01" height="21.119" viewBox="0 0 30.01 21.119"><defs><style>.a,.b{fill:#1c3c34;}.a{clip-rule:evenodd;}.c{clip-path:url(#a);}.d{clip-path:url(#b);}</style><clipPath id="a"><path class="a" d="M963.643,6045.125v-8.932l7.844,4.466Zm17.446-11.743a3.77,3.77,0,0,0-2.651-2.672c-2.342-.632-11.726-.632-11.726-.632s-9.384,0-11.725.632a3.771,3.771,0,0,0-2.651,2.672,42.45,42.45,0,0,0,0,14.554,3.712,3.712,0,0,0,2.651,2.629c2.341.632,11.725.632,11.725.632s9.384,0,11.726-.632a3.711,3.711,0,0,0,2.651-2.629,42.438,42.438,0,0,0,0-14.554Z" transform="translate(-951.708 -6030.078)"/></clipPath><clipPath id="b"><rect class="b" width="1052.813" height="744.652"/></clipPath></defs><g class="c"><g transform="translate(-698.957 -416.755)"><g class="d"><rect class="b" width="42.513" height="33.634" transform="translate(692.706 410.497)"/></g></g></g></svg>